<svg width="24" height="24" viewBox="0 0 24 24" fill="none" xmlns="http://www.w3.org/2000/svg">
<mask id="mask0_17_555" style="mask-type:luminance" maskUnits="userSpaceOnUse" x="0" y="0" width="24" height="24">
<rect x="24" y="24" width="24" height="24" transform="rotate(180 24 24)" fill="white"/>
</mask>
<g mask="url(#mask0_17_555)">
<path fill-rule="evenodd" clip-rule="evenodd" d="M14.25 20.8125L18.75 20.8125C19.1124 20.8125 19.4218 20.6844 19.6781 20.4281C19.9344 20.1718 20.0625 19.8625 20.0625 19.5L20.0625 4.50002C20.0625 4.13758 19.9344 3.82823 19.6781 3.57195C19.4218 3.31566 19.1124 3.18752 18.75 3.18752L14.25 3.18752C13.8876 3.18752 13.5782 3.31566 13.3219 3.57195C13.0656 3.82823 12.9375 4.13759 12.9375 4.50002L12.9375 19.5C12.9375 19.8625 13.0656 20.1718 13.3219 20.4281C13.5782 20.6844 13.8876 20.8125 14.25 20.8125ZM18.9375 16.6875L14.0625 16.6875L14.0625 7.31252L18.9375 7.31252L18.9375 16.6875ZM18.75 19.6875L14.25 19.6875C14.1982 19.6875 14.154 19.6692 14.1174 19.6326C14.0808 19.596 14.0625 19.5518 14.0625 19.5L14.0625 17.8125L18.9375 17.8125L18.9375 19.5C18.9375 19.5518 18.9192 19.596 18.8826 19.6326C18.846 19.6692 18.8018 19.6875 18.75 19.6875ZM14.25 4.31252L18.75 4.31252C18.8018 4.31252 18.846 4.33083 18.8826 4.36744C18.9192 4.40405 18.9375 4.44825 18.9375 4.50002L18.9375 6.18752L14.0625 6.18752L14.0625 4.50002C14.0625 4.44825 14.0808 4.40405 14.1174 4.36744C14.154 4.33083 14.1982 4.31252 14.25 4.31252ZM2.46562 5.71877L5.57719 20.5163C5.65106 20.8726 5.84039 21.1502 6.14519 21.3491C6.44998 21.5479 6.78033 21.6094 7.13625 21.5335L11.5247 20.5903C11.8781 20.5127 12.1531 20.322 12.3498 20.0182C12.5465 19.7145 12.608 19.3855 12.5344 19.0313L9.42281 4.23659C9.38707 4.06491 9.31962 3.90674 9.22048 3.76209C9.12134 3.61744 8.99816 3.49748 8.85093 3.40221C8.74545 3.3332 8.63231 3.28066 8.51152 3.2446C8.39073 3.20854 8.2673 3.19045 8.14125 3.19034C8.09396 3.19009 8.0468 3.19247 7.99978 3.19749C7.95276 3.2025 7.90617 3.21012 7.86 3.22034L3.47156 4.16253C3.11958 4.24108 2.8457 4.4318 2.64993 4.73467C2.45415 5.03755 2.39272 5.36558 2.46562 5.71877ZM10.2291 13.53L5.47312 14.5519L4.14937 8.25565L8.90625 7.23659L10.2291 13.53ZM10.8506 16.4888L6.09375 17.5135L5.70469 15.6563L10.4606 14.6344L10.8506 16.4888ZM11.2875 19.4888L6.9 20.431C6.89345 20.4316 6.88689 20.4319 6.88031 20.4319C6.87373 20.4319 6.86717 20.4316 6.86062 20.431C6.8431 20.4309 6.82595 20.4284 6.80918 20.4233C6.79241 20.4182 6.77675 20.4107 6.76219 20.401C6.74042 20.3871 6.72229 20.3695 6.70779 20.3482C6.69329 20.3268 6.68361 20.3035 6.67875 20.2781L6.32719 18.6075L11.0822 17.5931L11.4328 19.26C11.4442 19.3119 11.4358 19.3602 11.4075 19.4051C11.3792 19.4501 11.3392 19.4786 11.2875 19.4906L11.2875 19.4888ZM3.71156 5.25752L8.1 4.31252C8.12373 4.30726 8.14755 4.30683 8.17147 4.31122C8.19538 4.31561 8.21749 4.32448 8.23781 4.33784C8.25957 4.35169 8.2777 4.36929 8.2922 4.39063C8.3067 4.41197 8.31638 4.43531 8.32125 4.46065L8.67281 6.13127L3.91781 7.15315L3.5625 5.49096C3.55091 5.43837 3.55969 5.38944 3.58884 5.34416C3.61799 5.29888 3.65889 5.27063 3.71156 5.2594L3.71156 5.25752Z" fill="#708E85"/>
</g>
</svg>
