<?xml version="1.0" encoding="utf-8"?>
<!-- Generator: Adobe Illustrator 21.0.0, SVG Export Plug-In . SVG Version: 6.00 Build 0)  -->
<svg version="1.1" id="Layer_3" xmlns="http://www.w3.org/2000/svg" xmlns:xlink="http://www.w3.org/1999/xlink" x="0px" y="0px"
	 viewBox="0 0 24 24" style="enable-background:new 0 0 24 24;" xml:space="preserve">
<path d="M3,15.5v7C3,22.8,2.8,23,2.5,23S2,22.8,2,22.5v-5.8l-1.1,1.1c-0.2,0.2-0.5,0.2-0.7,0c-0.2-0.2-0.2-0.5,0-0.7l2-2
	C2.3,15,2.5,15,2.7,15C2.9,15.1,3,15.3,3,15.5L3,15.5z M0.5,2.5C0.8,2.5,1,2.7,1,3v4.2C2.9,2.9,7.2,0,12,0c6.6,0,12,5.4,12,12
	s-5.4,12-12,12H12c-0.6,0-1.1,0-1.7-0.1c-0.3,0-0.5-0.3-0.4-0.6c0-0.3,0.3-0.5,0.6-0.4C11,23,11.5,23,12,23c6.1,0,11-4.9,11-11
	S18.1,1,12,1C7.5,1,3.4,3.8,1.8,8H6c0.3,0,0.5,0.2,0.5,0.5S6.3,9,6,9H1.5C0.7,9,0,8.3,0,7.5V3C0,2.7,0.2,2.5,0.5,2.5z M10,17.5v3
	c0,1.4-1.1,2.5-2.5,2.5S5,21.9,5,20.5v-3C5,16.1,6.2,15,7.5,15S10,16.1,10,17.5z M9,17.5C9,16.7,8.4,16,7.5,16S6,16.7,6,17.5v3
	C6,21.3,6.7,22,7.5,22S9,21.3,9,20.5V17.5z M12,5.5V12h5.5c0.3,0,0.5,0.2,0.5,0.5S17.8,13,17.5,13h-6c-0.3,0-0.5-0.2-0.5-0.5v-7
	C11,5.2,11.2,5,11.5,5S12,5.2,12,5.5z"/>
</svg>
